999
LiteCAD test fixture - minimal ASCII DXF R12 exercising core entity types.
0
SECTION
2
HEADER
9
$ACADVER
1
AC1009
9
$INSUNITS
70
4
9
$EXTMIN
10
0.0
20
0.0
30
0.0
9
$EXTMAX
10
200.0
20
120.0
30
0.0
0
ENDSEC
0
SECTION
2
TABLES
0
TABLE
2
LAYER
70
3
0
LAYER
2
0
70
0
62
7
6
CONTINUOUS
0
LAYER
2
WALLS
70
0
62
1
6
CONTINUOUS
0
LAYER
2
DOORS
70
0
62
3
6
CONTINUOUS
0
LAYER
2
NOTES
70
0
62
2
6
CONTINUOUS
0
ENDTAB
0
ENDSEC
0
SECTION
2
BLOCKS
0
BLOCK
2
MARKER
70
0
10
0.0
20
0.0
30
0.0
0
LINE
8
DOORS
10
-5.0
20
0.0
30
0.0
11
5.0
21
0.0
31
0.0
0
LINE
8
DOORS
10
0.0
20
-5.0
30
0.0
11
0.0
21
5.0
31
0.0
0
ENDBLK
0
ENDSEC
0
SECTION
2
ENTITIES
0
LWPOLYLINE
8
WALLS
62
1
90
4
70
1
10
0.0
20
0.0
10
200.0
20
0.0
10
200.0
20
120.0
10
0.0
20
120.0
0
LINE
8
WALLS
10
0.0
20
40.0
30
0.0
11
120.0
21
40.0
31
0.0
0
CIRCLE
8
DOORS
10
60.0
20
80.0
30
0.0
40
25.0
0
ARC
8
DOORS
10
160.0
20
80.0
30
0.0
40
20.0
50
0.0
51
90.0
0
ELLIPSE
8
DOORS
10
40.0
20
20.0
30
0.0
11
25.0
21
0.0
31
0.0
40
0.5
41
0.0
42
6.283185307179586
0
POINT
8
NOTES
10
100.0
20
60.0
30
0.0
0
TEXT
8
NOTES
10
10.0
20
105.0
30
0.0
40
8.0
1
LITECAD FIXTURE
0
MTEXT
8
NOTES
10
10.0
20
90.0
30
0.0
40
6.0
1
Multi line text
0
LWPOLYLINE
8
WALLS
90
3
70
0
10
140.0
20
20.0
42
0.5
10
180.0
20
20.0
10
180.0
20
50.0
0
INSERT
8
DOORS
2
MARKER
10
100.0
20
20.0
30
0.0
41
2.0
42
2.0
43
1.0
50
45.0
0
3DSOLID
8
0
0
ENDSEC
0
EOF
